HIERARCHY
ROOT reference
{
  OFFSET 0 0 0
  CHANNELS 6 Xposition Yposition Zposition Zrotation Xrotation Yrotation
  JOINT Hips
  {
    OFFSET -18.9917 90.8834 69.6086
    CHANNELS 6 Xposition Yposition Zposition Zrotation Xrotation Yrotation
    JOINT Spine
    {
      OFFSET 0 8.12958 0
      CHANNELS 6 Xposition Yposition Zposition Zrotation Xrotation Yrotation
      JOINT Spine1
      {
        OFFSET 0 26.3907 0
        CHANNELS 6 Xposition Yposition Zposition Zrotation Xrotation Yrotation
        JOINT Neck
        {
          OFFSET 0 26.2823 2.3893
          CHANNELS 6 Xposition Yposition Zposition Zrotation Xrotation Yrotation
          JOINT Head
          {
            OFFSET 0 13.8798 -1.98282
            CHANNELS 6 Xposition Yposition Zposition Zrotation Xrotation Yrotation
            End Site
            {
              OFFSET 0 24.7853 0
            }
          }
        }
        JOINT LeftShoulder
        {
          OFFSET 3.97789 23.5745 -0.27352
          CHANNELS 6 Xposition Yposition Zposition Zrotation Xrotation Yrotation
          JOINT LeftArm
          {
            OFFSET 13.7626 0 0
            CHANNELS 6 Xposition Yposition Zposition Zrotation Xrotation Yrotation
            JOINT LeftForeArm
            {
              OFFSET 26.1014 0 0
              CHANNELS 6 Xposition Yposition Zposition Zrotation Xrotation Yrotation
              JOINT LeftHand
              {
                OFFSET 29.9599 0 0
                CHANNELS 6 Xposition Yposition Zposition Zrotation Xrotation Yrotation
                End Site
                {
                  OFFSET 14.8712 0 0
                }
              }
            }
          }
        }
        JOINT RightShoulder
        {
          OFFSET -3.9517 23.5745 -0.27352
          CHANNELS 6 Xposition Yposition Zposition Zrotation Xrotation Yrotation
          JOINT RightArm
          {
            OFFSET -13.7626 0 0
            CHANNELS 6 Xposition Yposition Zposition Zrotation Xrotation Yrotation
            JOINT RightForeArm
            {
              OFFSET -26.1014 0 0
              CHANNELS 6 Xposition Yposition Zposition Zrotation Xrotation Yrotation
              JOINT RightHand
              {
                OFFSET -29.9599 0 0
                CHANNELS 6 Xposition Yposition Zposition Zrotation Xrotation Yrotation
                End Site
                {
                  OFFSET -14.8712 0 0
                }
              }
            }
          }
        }
      }
    }
    JOINT LeftUpLeg
    {
      OFFSET 9.91412 0 0
      CHANNELS 6 Xposition Yposition Zposition Zrotation Xrotation Yrotation
      JOINT LeftLeg
      {
        OFFSET 0 -41.4279 0
        CHANNELS 6 Xposition Yposition Zposition Zrotation Xrotation Yrotation
        JOINT LeftFoot
        {
          OFFSET 0 -41.0254 0
          CHANNELS 6 Xposition Yposition Zposition Zrotation Xrotation Yrotation
          JOINT LeftToeBase
          {
            OFFSET 0 -6.44418 14.8712
            CHANNELS 6 Xposition Yposition Zposition Zrotation Xrotation Yrotation
            End Site
            {
              OFFSET 0 0 3.96565
            }
          }
        }
      }
    }
    JOINT RightUpLeg
    {
      OFFSET -9.91412 0 0
      CHANNELS 6 Xposition Yposition Zposition Zrotation Xrotation Yrotation
      JOINT RightLeg
      {
        OFFSET 0 -41.4279 0
        CHANNELS 6 Xposition Yposition Zposition Zrotation Xrotation Yrotation
        JOINT RightFoot
        {
          OFFSET 0 -41.0254 0
          CHANNELS 6 Xposition Yposition Zposition Zrotation Xrotation Yrotation
          JOINT RightToeBase
          {
            OFFSET 0 -6.44418 14.8712
            CHANNELS 6 Xposition Yposition Zposition Zrotation Xrotation Yrotation
            End Site
            {
              OFFSET 0 0 3.96565
            }
          }
        }
      }
    }
  }
}
MOTION
Frames:	4
Frame Time:	0.004
0 0 0 0 0 -0 -41.2667 83.2853 -196.166 -0.171959 -2.27365 3.57768 0 8.12958 0 -0.462787 1.29129 -2.32666 0 26.3907 0 0.627664 -5.52143 -2.30142 -7.10543e-015 26.2823 2.3893 -0.189305 13.6079 -3.74878 -7.10543e-015 13.8798 -1.98282 1.6045 -1.90989 -3.64839 3.97789 23.5745 -0.27352 11.2234 2.1534 -0.624147 13.7626 -2.84217e-014 0 -14.0281 3.47683 1.21994 26.1014 0 0 0.215934 3.56843 0.998417 29.9599 0 0 9.96311 4.08718 5.97357 -3.9517 23.5745 -0.27352 -11.1054 -0.917625 2.24703 -13.7626 -2.84217e-014 0 11.9964 3.49747 -3.48199 -26.1014 -2.84217e-014 0 -2.5202 2.4394 -0.918599 -29.9599 0 0 -6.56077 2.43301 -0.240933 9.91412 0 0 -0.646966 7.29511 0.378949 0 -41.4279 0 1.15742 -5.56493 5.42848 -3.55271e-015 -41.0254 2.84217e-014 1.30439 -3.35532 8.45105 7.10543e-015 -6.44418 14.8712 -1.98785e-016 3.97569e-016 -6.36111e-015 -9.91412 1.42109e-014 2.84217e-014 -1.52503 5.39943 6.97309 7.10543e-015 -41.4279 -2.84217e-014 0.188204 -2.04932 6.6232 0 -41.0254 0 -0.613468 -5.20897 -17.1189 -7.10543e-015 -6.44418 14.8712 7.18265e-017 7.95139e-016 1.86361e-017 
0 0 0 0 0 -0 -41.2667 83.2853 -196.161 -0.17306 -2.26229 3.5678 7.10543e-015 8.12958 -2.84217e-014 -0.463324 1.27808 -2.32665 7.10543e-015 26.3907 0 0.627664 -5.52143 -2.30142 0 26.2823 2.3893 -0.188215 13.6336 -3.75781 7.10543e-015 13.8798 -1.98282 1.61853 -1.94797 -3.64847 3.97789 23.5745 -0.27352 11.2302 2.1534 -0.624147 13.7626 0 0 -14.0278 3.46497 1.21992 26.1014 -5.68434e-014 0 0.215211 3.60982 0.998462 29.9599 -2.84217e-014 0 10.2292 4.14194 5.97398 -3.9517 23.5745 -0.27352 -11.1054 -0.917625 2.24703 -13.7626 -2.84217e-014 -2.84217e-014 12.0063 3.48795 -3.48195 -26.1014 0 0 -2.53503 2.43176 -0.918594 -29.9599 2.84217e-014 -2.84217e-014 -6.52156 2.42519 -0.240549 9.91412 0 0 -0.646966 7.29511 0.378949 0 -41.4279 0 1.15742 -5.56491 5.42848 3.55271e-015 -41.0254 0 1.3111 -3.35532 8.45131 0 -6.44418 14.8712 3.97569e-016 -1.19271e-015 3.18055e-015 -9.91412 0 -2.84217e-014 -1.57692 5.33454 7.20948 0 -41.4279 2.84217e-014 0.284951 -1.93258 6.68301 0 -41.0254 -2.84217e-014 -0.702398 -5.27146 -17.3917 7.10543e-015 -6.44418 14.8712 -9.20156e-017 1.59028e-015 6.21202e-018 
0 0 0 0 0 -0 -41.2667 83.2853 -196.155 -0.173515 -2.26117 3.55808 0 8.12958 0 -0.46343 1.27546 -2.32665 -7.10543e-015 26.3907 0 0.627664 -5.52143 -2.30142 -7.10543e-015 26.2823 2.3893 -0.203716 13.6278 -3.761 0 13.8798 -1.98282 1.63544 -1.93231 -3.6489 3.97789 23.5745 -0.27352 11.2343 2.1534 -0.624147 13.7626 2.84217e-014 0 -14.0351 3.48244 1.21994 26.1014 0 -2.84217e-014 0.215535 3.59126 0.998442 29.9599 0 2.84217e-014 10.2432 4.12413 5.97445 -3.9517 23.5745 -0.27352 -11.1054 -0.917625 2.24703 -13.7626 0 -2.84217e-014 12.0135 3.47636 -3.48191 -26.1014 -2.84217e-014 -2.84217e-014 -2.53273 2.42489 -0.916998 -29.9599 2.84217e-014 2.84217e-014 -6.5419 2.41977 -0.264672 9.91412 0 0 -0.646198 7.30756 0.372269 7.10543e-015 -41.4279 0 1.15993 -5.5864 5.43337 -3.55271e-015 -41.0254 0 1.31935 -3.35521 8.46409 -3.55271e-015 -6.44418 14.8712 0 0 -0 -9.91412 -1.42109e-014 0 -1.56854 5.3381 7.22462 -7.10543e-015 -41.4279 -2.84217e-014 0.284792 -1.93289 6.68018 -7.10543e-015 -41.0254 0 -0.704484 -5.28051 -17.3989 7.10543e-015 -6.44418 14.8712 -6.28967e-017 -1.59028e-015 -0 
0 0 0 0 0 -0 -41.2684 83.2853 -196.15 -0.173919 -2.25729 3.55397 -7.10543e-015 8.12958 -2.84217e-014 -0.463747 1.26767 -2.32664 0 26.3907 0 0.627664 -5.52143 -2.30142 7.10543e-015 26.2823 2.3893 -0.193699 13.6105 -3.76786 0 13.8798 -1.98282 1.61638 -1.91054 -3.65958 3.97789 23.5745 -0.27352 11.2462 2.1558 -0.624829 13.7626 0 0 -14.0406 3.43483 1.21988 26.1014 2.84217e-014 0 0.215433 3.59711 0.998448 29.9599 2.84217e-014 0 10.246 4.12846 5.95569 -3.9517 23.5745 -0.27352 -11.1054 -0.917625 2.24703 -13.7626 5.68434e-014 0 12.0374 3.49766 -3.48199 -26.1014 -2.84217e-014 2.84217e-014 -2.54872 2.40004 -0.903477 -29.9599 0 -2.84217e-014 -6.55119 2.39624 -0.284659 9.91412 -1.42109e-014 -2.84217e-014 -0.643254 7.31268 0.348878 -3.55271e-015 -41.4279 0 1.16355 -5.59308 5.46373 -3.55271e-015 -41.0254 0 1.3005 -3.3529 8.46755 0 -6.44418 14.8712 5.96354e-016 -3.97569e-016 -6.36111e-015 -9.91412 0 0 -1.57292 5.34082 7.20762 -7.10543e-015 -41.4279 0 0.283678 -1.93699 6.69107 7.10543e-015 -41.0254 -2.84217e-014 -0.703885 -5.28831 -17.3881 0 -6.44418 14.8712 5.31904e-017 0 -2.48481e-017 
